<!-- Promo card "Learn More VXO Opportunities" illustration.
     1:1 reconstruction of Figma node I4:10013;7547:25970
     ("Illustration=Dot Confetti, Component=Successful Illustrations").
     Composite of 10 confetti ellipses + 1 large white background circle + crown
     icon (orange #FF981F). Sized 62×60 in the original Figma container. -->
<svg xmlns="http://www.w3.org/2000/svg" width="62" height="60" viewBox="0 0 62 60" fill="none">
  <!-- White background disk behind the crown -->
  <ellipse cx="31.83" cy="30.50" rx="23.50" ry="23.50" fill="#FFFFFF"/>
  <!-- Confetti dots (all white, varying radii) -->
  <ellipse cx="20.83" cy="58.84" rx="1.17" ry="1.17" fill="#FFFFFF"/>
  <ellipse cx="40.67" cy="57.00" rx="0.34" ry="0.34" fill="#FFFFFF"/>
  <ellipse cx="3.33" cy="44.33" rx="1.67" ry="1.67" fill="#FFFFFF"/>
  <ellipse cx="55.17" cy="53.50" rx="0.83" ry="0.83" fill="#FFFFFF"/>
  <ellipse cx="56.83" cy="36.83" rx="0.83" ry="0.83" fill="#FFFFFF"/>
  <ellipse cx="0.33" cy="25.00" rx="0.34" ry="0.34" fill="#FFFFFF"/>
  <ellipse cx="59.50" cy="9.17" rx="2.50" ry="2.50" fill="#FFFFFF"/>
  <ellipse cx="35.50" cy="1.50" rx="0.83" ry="0.83" fill="#FFFFFF"/>
  <ellipse cx="6.67" cy="3.33" rx="3.33" ry="3.33" fill="#FFFFFF"/>
  <!-- Crown icon — placed inside the big white disk, fill from Figma var(--fill-0, #FF981F) -->
  <g transform="translate(23.55 22.67)">
    <path d="M15.277 9.85956L15.4405 8.344C15.5268 7.53511 15.5845 7.00178 15.5392 6.66578H15.5552C15.8595 6.6657 16.1545 6.56156 16.3915 6.37065C16.6284 6.17975 16.7929 5.91355 16.8576 5.61627C16.9224 5.31898 16.8835 5.00849 16.7475 4.73633C16.6115 4.46418 16.3865 4.24673 16.1098 4.12009C15.8332 3.99346 15.5215 3.96525 15.2266 4.04015C14.9317 4.11505 14.6713 4.28856 14.4886 4.53187C14.3059 4.77517 14.212 5.07364 14.2223 5.37773C14.2326 5.68181 14.3466 5.97321 14.5454 6.20356C14.2557 6.38222 13.877 6.76 13.3072 7.328C12.8672 7.76623 12.6477 7.98489 12.4023 8.01867C12.2664 8.03743 12.1279 8.01804 12.0023 7.96267C11.7765 7.86311 11.6254 7.59289 11.3241 7.05156L9.73298 4.19911C9.54721 3.86578 9.39165 3.58578 9.25121 3.36178C9.607 3.18049 9.8914 2.88469 10.0586 2.52205C10.2258 2.15941 10.266 1.75104 10.1728 1.36275C10.0795 0.974468 9.8583 0.628872 9.5447 0.381656C9.23111 0.134439 8.84342 0 8.4441 0C8.04477 0 7.65708 0.134439 7.34349 0.381656C7.02989 0.628872 6.80866 0.974468 6.71544 1.36275C6.62222 1.75104 6.66244 2.15941 6.82961 2.52205C6.99679 2.88469 7.28119 3.18049 7.63698 3.36178C7.49654 3.58667 7.34098 3.86578 7.15432 4.19911L5.5641 7.05156C5.26187 7.59289 5.11076 7.86311 4.88498 7.96267C4.75942 8.01804 4.62093 8.03743 4.48498 8.01867C4.24054 7.98489 4.02098 7.76623 3.58098 7.328C3.01121 6.76 2.63254 6.38222 2.34276 6.20356C2.54154 5.97321 2.65557 5.68181 2.6659 5.37773C2.67623 5.07364 2.58225 4.77517 2.39956 4.53187C2.21688 4.28856 1.95647 4.11505 1.66157 4.04015C1.36668 3.96525 1.05504 3.99346 0.778383 4.12009C0.501731 4.24673 0.276711 4.46418 0.140681 4.73633C0.00465083 5.00849 -0.0342066 5.31898 0.0305597 5.61627C0.095326 5.91355 0.25982 6.17975 0.496733 6.37065C0.733646 6.56156 1.02873 6.6657 1.33298 6.66578H1.34898C1.30365 7.00178 1.36143 7.536 1.44765 8.344L1.61121 9.85956C1.70187 10.7004 1.77654 11.5013 1.86898 12.2213H15.0192C15.1117 11.5013 15.1863 10.7013 15.277 9.85956ZM7.47698 15.9991H9.41121C11.9321 15.9991 13.1925 15.9991 14.0334 15.2462C14.4005 14.9173 14.6325 14.3253 14.8005 13.5547H2.08765C2.25565 14.3253 2.48765 14.9182 2.85476 15.2462C3.69565 15.9991 4.9561 15.9991 7.47698 15.9991Z" fill="#FF981F"/>
  </g>
</svg>
