<svg preserveAspectRatio="none" width="100%" height="100%" overflow="visible" style="display: block;" viewBox="0 0 27.7334 27.7334" fill="none" xmlns="http://www.w3.org/2000/svg">
<path id="Exclude" d="M13.8662 0C17.5439 0 21.0714 1.46102 23.6719 4.06152C26.2723 6.66192 27.7333 10.1887 27.7334 13.8662C27.7261 17.5416 26.263 21.0651 23.6641 23.6641C21.0651 26.263 17.5416 27.7261 13.8662 27.7334H2.17676C1.59949 27.7333 1.0459 27.5039 0.637695 27.0957C0.229504 26.6875 9.85194e-05 26.1339 0 25.5566V13.8662C0.000120949 10.1887 1.46113 6.66192 4.06152 4.06152C6.66192 1.46113 10.1887 0.000120895 13.8662 0ZM8.73242 14.6992C8.08152 14.6992 7.52883 15.3061 7.73438 15.9668C8.55665 18.6338 11.0375 20.5721 13.9736 20.5723C16.91 20.5723 19.3524 18.6339 20.2188 15.9668C20.4194 15.3062 19.8716 14.6994 19.1768 14.6992H8.73242ZM9.95117 8.04297C9.19258 8.04297 8.50208 8.54248 8.02246 9.17871C7.53816 9.82462 7.21003 10.6906 7.20996 11.5664C7.20996 11.7328 7.31806 11.8846 7.47949 11.9385C7.63605 11.9923 7.81225 11.9387 7.91504 11.8018L7.9248 11.7871C7.93458 11.7773 7.90063 11.7627 7.95898 11.7432C7.9492 11.704 8.03795 11.6496 8.09668 11.5811C8.21901 11.4392 8.39035 11.2581 8.5957 11.0332C9.02634 10.6956 9.52055 10.3926 9.95117 10.3926C10.3818 10.3926 10.876 10.6956 11.3066 11.0332C11.512 11.2582 11.6833 11.4392 11.8057 11.5811C11.8644 11.6496 11.9091 11.704 11.9434 11.7432C11.9579 11.7626 11.9678 11.7774 11.9775 11.7871L11.9873 11.8018C12.0901 11.9386 12.2663 11.9923 12.4229 11.9385C12.5842 11.8846 12.6914 11.7327 12.6914 11.5664C12.6913 10.6905 12.3634 9.82466 11.8789 9.17871C11.3993 8.5425 10.7097 8.043 9.95117 8.04297ZM17.7812 8.04297C17.0228 8.04316 16.333 8.5426 15.8535 9.17871C15.3691 9.82464 15.0411 10.6905 15.041 11.5664C15.041 11.7328 15.149 11.8846 15.3105 11.9385C15.4671 11.9921 15.6434 11.9387 15.7461 11.8018L15.7559 11.7871C15.7654 11.7773 15.7315 11.7627 15.79 11.7432C15.7803 11.704 15.868 11.6496 15.9268 11.5811C16.0491 11.4392 16.2203 11.2582 16.4258 11.0332C16.8563 10.6956 17.3507 10.3928 17.7812 10.3926C18.2119 10.3926 18.707 10.6955 19.1377 11.0332C19.3431 11.2582 19.5144 11.4392 19.6367 11.5811C19.6954 11.6496 19.7392 11.704 19.7734 11.7432C19.7881 11.7627 19.7979 11.7773 19.8076 11.7871L19.8174 11.8018C19.9201 11.9387 20.0964 11.9922 20.2529 11.9385C20.4144 11.8846 20.5225 11.7328 20.5225 11.5664C20.5224 10.6906 20.1943 9.82464 19.71 9.17871C19.2303 8.54248 18.5398 8.04297 17.7812 8.04297Z" fill="var(--fill-0, white)"/>
</svg>
