<svg preserveAspectRatio="none" width="100%" height="100%" overflow="visible" style="display: block;" viewBox="0 0 14.6667 8.00001" fill="none" xmlns="http://www.w3.org/2000/svg">
<g id="Vector">
<path d="M14.439 0.164958C14.7161 0.407413 14.7442 0.828588 14.5017 1.10568L8.66839 7.77235C8.54874 7.90908 8.37848 7.99106 8.19698 7.99932C8.01547 8.00758 7.83846 7.9414 7.7069 7.8161L6.02864 6.21776L4.66839 7.77235C4.54874 7.90908 4.37848 7.99106 4.19698 7.99932C4.01547 8.00758 3.83847 7.9414 3.7069 7.8161L0.206898 4.48277C-0.0597224 4.22884 -0.0700147 3.80686 0.183909 3.54024C0.437833 3.27362 0.859818 3.26333 1.12644 3.51725L4.12287 6.371L5.06227 5.29741L4.2069 4.48277C3.94028 4.22884 3.92999 3.80686 4.18391 3.54024C4.43783 3.27362 4.85982 3.26333 5.12644 3.51725L8.12287 6.371L13.4983 0.227673C13.7407 -0.0494184 14.1619 -0.0774967 14.439 0.164958Z" fill="var(--fill-0, white)"/>
<path d="M10.5017 1.10568C10.7442 0.828588 10.7161 0.407413 10.439 0.164958C10.1619 -0.0774967 9.74074 -0.0494184 9.49828 0.227673L7.16495 2.89434C6.9225 3.17143 6.95057 3.59261 7.22766 3.83506C7.50476 4.07752 7.92593 4.04944 8.16839 3.77235L10.5017 1.10568Z" fill="var(--fill-0, white)"/>
</g>
</svg>
