<svg preserveAspectRatio="none" width="100%" height="100%" overflow="visible" style="display: block;" viewBox="0 0 14.3157 16.3718" fill="none" xmlns="http://www.w3.org/2000/svg">
<path id="Vector" d="M12.7259 8.66479L7.5759 13.8231C6.90074 14.4231 6.02185 14.7425 5.119 14.7159C4.21615 14.6894 3.35757 14.3188 2.71888 13.6801C2.08019 13.0415 1.70966 12.1829 1.68308 11.28C1.6565 10.3772 1.97588 9.49828 2.5759 8.82313L9.24256 2.15646C9.64059 1.77837 10.1686 1.56757 10.7176 1.56757C11.2665 1.56757 11.7945 1.77837 12.1926 2.15646C12.5804 2.54945 12.7978 3.07935 12.7978 3.63146C12.7978 4.18357 12.5804 4.71347 12.1926 5.10646L6.44256 10.8481C6.38566 10.9094 6.31724 10.9589 6.24121 10.9937C6.16519 11.0286 6.08304 11.0481 5.99947 11.0512C5.9159 11.0543 5.83253 11.0409 5.75414 11.0118C5.67574 10.9826 5.60385 10.9384 5.54256 10.8815C5.48128 10.8246 5.43181 10.7561 5.39696 10.6801C5.36212 10.6041 5.3426 10.5219 5.3395 10.4384C5.33641 10.3548 5.3498 10.2714 5.37892 10.193C5.40805 10.1146 5.45233 10.0427 5.50923 9.98146L9.78423 5.71479C9.94115 5.55787 10.0293 5.34504 10.0293 5.12313C10.0293 4.90121 9.94115 4.68838 9.78423 4.53146C9.62731 4.37454 9.41448 4.28638 9.19257 4.28638C8.97065 4.28638 8.75782 4.37454 8.6009 4.53146L4.3259 8.81479C4.11199 9.02705 3.9422 9.27954 3.82634 9.55773C3.71048 9.83591 3.65083 10.1343 3.65083 10.4356C3.65083 10.737 3.71048 11.0353 3.82634 11.3135C3.9422 11.5917 4.11199 11.8442 4.3259 12.0565C4.76288 12.4727 5.34324 12.7049 5.94673 12.7049C6.55022 12.7049 7.13059 12.4727 7.56757 12.0565L13.3092 6.30646C13.9716 5.59558 14.3322 4.65535 14.3151 3.68385C14.298 2.71234 13.9044 1.78542 13.2173 1.09835C12.5303 0.411285 11.6033 0.0177253 10.6318 0.000584235C9.66034 -0.0165568 8.72011 0.344059 8.00923 1.00646L1.34256 7.67313C0.443564 8.66882 -0.0365782 9.973 0.00217603 11.3139C0.0409303 12.6549 0.595592 13.9291 1.5506 14.8713C2.5056 15.8134 3.7873 16.3507 5.12864 16.3712C6.46997 16.3917 7.76751 15.8939 8.7509 14.9815L13.9092 9.83146C13.9869 9.75376 14.0486 9.66152 14.0906 9.56C14.1327 9.45848 14.1543 9.34967 14.1543 9.23979C14.1543 9.12991 14.1327 9.0211 14.0906 8.91958C14.0486 8.81807 13.9869 8.72582 13.9092 8.64813C13.8315 8.57043 13.7393 8.50879 13.6378 8.46674C13.5363 8.42469 13.4274 8.40305 13.3176 8.40305C13.2077 8.40305 13.0989 8.42469 12.9974 8.46674C12.8958 8.50879 12.8036 8.57043 12.7259 8.64813V8.66479Z" fill="var(--fill-0, #9E9E9E)"/>
</svg>
