<svg preserveAspectRatio="none" width="100%" height="100%" overflow="visible" style="display: block;" viewBox="0 0 17 20" fill="none" xmlns="http://www.w3.org/2000/svg">
<g id="Group">
<path id="Union" d="M16.0312 7.82617C16.566 7.82617 17 8.2542 17 8.7832C16.9998 13.0868 13.7 16.6408 9.46875 17.1182V19.043C9.46875 19.571 9.03473 20 8.5 20C7.96452 19.9997 7.53223 19.5709 7.53223 19.043V17.1182C3.30002 16.6408 0.000172724 13.0868 0 8.7832C0 8.2542 0.434019 7.82617 0.96875 7.82617C1.50347 7.82619 1.9375 8.25421 1.9375 8.7832C1.93769 12.3558 4.88121 15.2624 8.5 15.2627C12.118 15.2627 15.0623 12.356 15.0625 8.7832C15.0625 8.25421 15.4965 7.82619 16.0312 7.82617ZM8.6748 0C11.0781 2.5826e-05 13.0272 1.92364 13.0273 4.29688V8.91992C13.0273 11.2923 11.0782 13.2177 8.6748 13.2178H8.3252C5.92181 13.2178 3.97363 11.2923 3.97363 8.91992V4.29688C3.97374 1.92363 5.92187 0 8.3252 0H8.6748Z" fill="var(--fill-0, white)"/>
</g>
</svg>
