<svg width="24" height="24" viewBox="0 0 24 24" fill="none" xmlns="http://www.w3.org/2000/svg">
<path fill-rule="evenodd" clip-rule="evenodd" d="M11.9491 14.54C15.3802 14.5401 18.3094 15.084 18.3094 17.2607C18.3091 19.4362 15.3988 20 11.9491 20C8.51793 20 5.58782 19.4561 5.58773 17.2803C5.58773 15.1035 8.49907 14.54 11.9491 14.54ZM6.56527 13.2295C6.58496 13.2322 6.59472 13.2468 6.59652 13.2549C6.59902 13.2683 6.59376 13.2875 6.56917 13.3018C5.9621 13.6035 3.61844 14.9161 3.91292 17.6826C3.92546 17.8033 3.83084 17.9058 3.71175 17.8887C3.13505 17.8058 1.65146 17.4851 1.19124 16.4863C0.936257 15.9578 0.936249 15.3459 1.19124 14.8174C1.49208 14.1735 2.2172 13.7297 3.32113 13.5117C3.84312 13.3847 5.25265 13.2052 6.56527 13.2295ZM17.4354 13.2285C18.7467 13.2043 20.1562 13.3848 20.6776 13.5127C21.7816 13.7297 22.5085 14.1725 22.8094 14.8164C23.0637 15.345 23.0636 15.9586 22.8094 16.4863C22.3493 17.4849 20.8658 17.8057 20.2889 17.8887C20.1699 17.9067 20.0735 17.8032 20.0858 17.6836C20.3803 14.9162 18.0378 13.6035 17.4315 13.3018C17.4055 13.2882 17.4005 13.2675 17.4032 13.2549C17.4051 13.2459 17.4158 13.2312 17.4354 13.2285ZM11.9491 4C14.2849 4.0001 16.1578 5.8821 16.158 8.23242C16.158 10.582 14.2851 12.4667 11.9491 12.4668C9.61295 12.4668 7.73909 10.5821 7.73909 8.23242C7.73932 5.88204 9.61309 4 11.9491 4ZM6.33577 4.70605C6.58102 4.70606 6.81562 4.73152 7.04476 4.77832C7.0752 4.78553 7.10986 4.80111 7.12777 4.82812C7.14828 4.86234 7.13264 4.90878 7.11116 4.93848C6.43344 5.89398 6.0428 7.05962 6.0428 8.30957C6.04289 9.50721 6.40047 10.6233 7.02718 11.5508C7.09126 11.6462 7.0342 11.775 6.92073 11.7949C6.76326 11.8228 6.60196 11.8373 6.43734 11.8418C4.79431 11.885 3.3194 10.8209 2.91195 9.21973C2.30755 6.84122 4.07936 4.70605 6.33577 4.70605ZM17.6629 4.70605C19.9193 4.70605 21.6912 6.84122 21.0877 9.21973C20.6803 10.8208 19.2062 11.8849 17.5633 11.8418C17.3987 11.8373 17.2364 11.8219 17.0799 11.7949C16.9663 11.7751 16.9084 11.6462 16.9725 11.5508C17.5992 10.6232 17.9568 9.50725 17.9569 8.30957C17.9569 7.05955 17.5663 5.89401 16.8885 4.93848C16.867 4.90876 16.8514 4.86235 16.8729 4.82812C16.8908 4.80046 16.9237 4.78649 16.9549 4.7793C17.1831 4.73249 17.4177 4.70608 17.6629 4.70605Z" fill="white"/>
</svg>
