<svg width="20" height="20" viewBox="0 0 20 20" fill="none" xmlns="http://www.w3.org/2000/svg">
<path fill-rule="evenodd" clip-rule="evenodd" d="M10.0001 7.9165C11.1508 7.9165 12.0834 8.8491 12.0834 9.99984C12.0834 11.1506 11.1508 12.0832 10.0001 12.0832C8.84935 12.0832 7.91675 11.1506 7.91675 9.99984C7.91675 8.8491 8.84935 7.9165 10.0001 7.9165Z" stroke="#212121" stroke-width="1.5" stroke-linecap="round" stroke-linejoin="round"/>
<path fill-rule="evenodd" clip-rule="evenodd" d="M16.8068 6.04204V6.04204C16.2371 5.04849 14.9761 4.70853 13.9905 5.28227C13.1332 5.78027 12.0618 5.15715 12.0618 4.16031C12.0618 3.01366 11.1383 2.0835 9.99989 2.0835V2.0835C8.86146 2.0835 7.93797 3.01366 7.93797 4.16031C7.93797 5.15715 6.86655 5.78027 6.01008 5.28227C5.02366 4.70853 3.76264 5.04849 3.19302 6.04204C2.62422 7.03558 2.96174 8.3057 3.94816 8.87862C4.80464 9.37745 4.80464 10.6229 3.94816 11.1217C2.96174 11.6954 2.62422 12.9656 3.19302 13.9583C3.76264 14.9518 5.02366 15.2918 6.00926 14.7189H6.01008C6.86655 14.2201 7.93797 14.8432 7.93797 15.84V15.84C7.93797 16.9867 8.86146 17.9168 9.99989 17.9168V17.9168C11.1383 17.9168 12.0618 16.9867 12.0618 15.84V15.84C12.0618 14.8432 13.1332 14.2201 13.9905 14.7189C14.9761 15.2918 16.2371 14.9518 16.8068 13.9583C17.3764 12.9656 17.038 11.6954 16.0524 11.1217H16.0516C15.1951 10.6229 15.1951 9.37745 16.0524 8.87862C17.038 8.3057 17.3764 7.03558 16.8068 6.04204Z" stroke="#212121" stroke-width="1.5" stroke-linecap="round" stroke-linejoin="round"/>
</svg>
