<svg width="28" height="28" viewBox="0 0 28 28" fill="none" xmlns="http://www.w3.org/2000/svg">
<path fill-rule="evenodd" clip-rule="evenodd" d="M3.20825 13.9999C3.20825 22.0931 5.90675 24.7916 13.9999 24.7916C22.0931 24.7916 24.7916 22.0931 24.7916 13.9999C24.7916 5.90675 22.0931 3.20825 13.9999 3.20825C5.90675 3.20825 3.20825 5.90675 3.20825 13.9999Z" stroke="#212121" stroke-width="1.5" stroke-linecap="round" stroke-linejoin="round"/>
<path fill-rule="evenodd" clip-rule="evenodd" d="M12.3651 10.2481C12.3651 11.3833 11.4458 12.3026 10.3106 12.3026C9.1766 12.3026 8.2561 11.3833 8.2561 10.2481C8.2561 9.11294 9.1766 8.1936 10.3106 8.1936C11.4458 8.1936 12.3651 9.11294 12.3651 10.2481Z" stroke="#212121" stroke-width="1.5" stroke-linecap="round" stroke-linejoin="round"/>
<path d="M24.6401 17.1109C23.6123 16.0539 22.1586 13.9177 19.4881 13.9177C16.8176 13.9177 16.7593 18.6287 14.034 18.6287C11.3074 18.6287 10.2096 17.0292 8.43278 17.8646C6.65712 18.6987 5.21045 22.0191 5.21045 22.0191" stroke="#212121" stroke-width="1.5" stroke-linecap="round" stroke-linejoin="round"/>
</svg>
