<svg width="20" height="20" viewBox="0 0 20 20" fill="none" xmlns="http://www.w3.org/2000/svg">
<path d="M15.5464 7.19531C16.5908 9.08791 16.5908 11.3975 15.5464 13.2835" stroke="#212121" stroke-width="1.5" stroke-linecap="round" stroke-linejoin="round"/>
<path fill-rule="evenodd" clip-rule="evenodd" d="M3.88921 10.2395C3.88625 11.2551 3.88921 12.4462 4.72773 13.1581C5.56625 13.8706 6.23218 13.5766 7.31736 13.9336C8.40329 14.2914 9.92403 16.4973 11.604 15.501C12.5122 14.8558 12.9403 13.6381 12.9403 10.2395C12.9403 6.84102 12.5314 5.63657 11.604 4.97805C9.92403 3.9825 8.40329 6.18842 7.31736 6.54546C6.23218 6.90324 5.56625 6.60916 4.72773 7.32102C3.88921 8.03287 3.88625 9.22398 3.88921 10.2395Z" stroke="#212121" stroke-width="1.5" stroke-linecap="round" stroke-linejoin="round"/>
</svg>
