<svg width="32" height="32" viewBox="0 0 32 32" fill="none" xmlns="http://www.w3.org/2000/svg">
<path fill-rule="evenodd" clip-rule="evenodd" d="M10.4133 2.6665H21.588C25.7067 2.6665 28 5.03984 28 9.1065V22.8798C28 27.0132 25.7067 29.3332 21.588 29.3332H10.4133C6.36 29.3332 4 27.0132 4 22.8798V9.1065C4 5.03984 6.36 2.6665 10.4133 2.6665ZM10.7733 8.87984V8.8665H14.7587C15.3333 8.8665 15.8 9.33317 15.8 9.90517C15.8 10.4932 15.3333 10.9598 14.7587 10.9598H10.7733C10.1987 10.9598 9.73333 10.4932 9.73333 9.91984C9.73333 9.3465 10.1987 8.87984 10.7733 8.87984ZM10.7733 16.9865H21.2267C21.8 16.9865 22.2667 16.5198 22.2667 15.9465C22.2667 15.3732 21.8 14.9052 21.2267 14.9052H10.7733C10.1987 14.9052 9.73333 15.3732 9.73333 15.9465C9.73333 16.5198 10.1987 16.9865 10.7733 16.9865ZM10.7733 23.0798H21.2267C21.7587 23.0265 22.16 22.5718 22.16 22.0398C22.16 21.4932 21.7587 21.0398 21.2267 20.9865H10.7733C10.3733 20.9465 9.98667 21.1332 9.77333 21.4798C9.56 21.8132 9.56 22.2532 9.77333 22.5998C9.98667 22.9332 10.3733 23.1332 10.7733 23.0798Z" fill="white"/>
</svg>
