<svg width="20" height="20" viewBox="0 0 20 20" fill="none" xmlns="http://www.w3.org/2000/svg">
<path fill-rule="evenodd" clip-rule="evenodd" d="M14.5334 5.197C14.5667 5.25527 14.6251 5.29689 14.7001 5.29689C16.7001 5.29689 18.3334 6.92841 18.3334 8.92619V13.8707C18.3334 15.8685 16.7001 17.5 14.7001 17.5H5.30008C3.29175 17.5 1.66675 15.8685 1.66675 13.8707V8.92619C1.66675 6.92841 3.29175 5.29689 5.30008 5.29689C5.36675 5.29689 5.43341 5.2636 5.45841 5.197L5.50841 5.09711C5.53714 5.03666 5.56662 4.97457 5.59654 4.91153C5.80973 4.46248 6.0456 3.96567 6.19175 3.6737C6.57508 2.92453 7.22508 2.50832 8.03341 2.5H11.9584C12.7667 2.50832 13.4251 2.92453 13.8084 3.6737C13.9397 3.93592 14.1397 4.35833 14.3324 4.76545C14.3722 4.84942 14.4116 4.93274 14.4501 5.01387L14.5334 5.197ZM13.9251 8.39345C13.9251 8.80966 14.2584 9.14262 14.6751 9.14262C15.0917 9.14262 15.4334 8.80966 15.4334 8.39345C15.4334 7.97725 15.0917 7.63596 14.6751 7.63596C14.2584 7.63596 13.9251 7.97725 13.9251 8.39345ZM8.55841 9.68368C8.95008 9.29245 9.45841 9.08435 10.0001 9.08435C10.5417 9.08435 11.0501 9.29245 11.4334 9.67536C11.8167 10.0583 12.0251 10.566 12.0251 11.1071C12.0167 12.2225 11.1167 13.1299 10.0001 13.1299C9.45841 13.1299 8.95008 12.9218 8.56675 12.5388C8.18341 12.1559 7.97508 11.6482 7.97508 11.1071V11.0988C7.96675 10.5744 8.17508 10.0666 8.55841 9.68368ZM12.3084 13.4212C11.7167 14.0122 10.9001 14.3785 10.0001 14.3785C9.12508 14.3785 8.30841 14.0372 7.68341 13.4212C7.06675 12.7969 6.72508 11.9811 6.72508 11.1071C6.71675 10.2414 7.05841 9.42564 7.67508 8.80133C8.30008 8.17703 9.12508 7.83574 10.0001 7.83574C10.8751 7.83574 11.7001 8.17703 12.3167 8.79301C12.9334 9.41731 13.2751 10.2414 13.2751 11.1071C13.2667 12.0144 12.9001 12.8302 12.3084 13.4212Z" fill="#9E9E9E"/>
</svg>
