<svg width="50" height="50" viewBox="0 0 50 50" fill="none" xmlns="http://www.w3.org/2000/svg">
<path fill-rule="evenodd" clip-rule="evenodd" d="M34.7192 4.18816C37.7161 4.00085 40.6714 5.04144 42.8983 7.081C44.9379 9.30786 45.9785 12.2631 45.812 15.2808V34.7191C45.9993 37.7368 44.9379 40.6921 42.9191 42.9189C40.6922 44.9585 37.7161 45.9991 34.7192 45.8118H15.2808C12.2631 45.9991 9.30778 44.9585 7.0809 42.9189C5.04133 40.6921 4.00073 37.7368 4.18804 34.7191V15.2808C4.00073 12.2631 5.04133 9.30786 7.0809 7.081C9.30778 5.04144 12.2631 4.00085 15.2808 4.18816H34.7192ZM22.8772 35.0937L36.8836 21.0457C38.1532 19.7554 38.1532 17.6742 36.8836 16.4047L34.1781 13.6992C32.8877 12.4088 30.8065 12.4088 29.5162 13.6992L28.1218 15.1144C27.9137 15.3225 27.9137 15.6763 28.1218 15.8844C28.1218 15.8844 31.4309 19.1727 31.4933 19.2559C31.7223 19.5056 31.868 19.8386 31.868 20.2132C31.868 20.9625 31.2644 21.5868 30.4944 21.5868C30.1406 21.5868 29.8076 21.4411 29.5786 21.2122L26.103 17.7575C25.9365 17.591 25.6452 17.591 25.4787 17.7575L15.5514 27.6847C14.8646 28.3715 14.4691 29.2872 14.4483 30.2653L14.3235 35.1977C14.3235 35.4683 14.4067 35.718 14.594 35.9053C14.7813 36.0926 15.0311 36.1967 15.3016 36.1967H20.1924C21.1914 36.1967 22.1488 35.8013 22.8772 35.0937Z" fill="#246BFD"/>
</svg>
