<svg width="32" height="32" viewBox="0 0 32 32" fill="none" xmlns="http://www.w3.org/2000/svg">
<path d="M21.7781 2.6665C26.297 2.6665 29.3336 5.83719 29.3337 10.5552V21.4438C29.3337 26.162 26.2975 29.3335 21.7771 29.3335H10.2214C5.70251 29.3334 2.66675 26.1619 2.66675 21.4438V10.5552C2.66687 5.83727 5.7026 2.66661 10.2214 2.6665H21.7781ZM23.2488 16.7329C21.8197 15.8418 20.7154 17.0933 20.4177 17.4937C20.1308 17.8803 19.8848 18.3074 19.6248 18.7339C18.9893 19.7864 18.2609 20.9997 17.0007 21.7056C15.1693 22.7195 13.7783 21.7857 12.7781 21.106C12.4029 20.8529 12.0377 20.6131 11.6746 20.4536C10.7793 20.0676 9.97268 20.5073 8.7771 22.0259C8.14962 22.8198 7.52835 23.6078 6.89819 24.3921C6.5217 24.8611 6.61143 25.584 7.1189 25.8979C7.92995 26.3974 8.91984 26.6664 10.0378 26.6665H21.2751C21.909 26.6665 22.5444 26.5793 23.1501 26.3813C24.515 25.9355 25.599 24.9144 26.1648 23.5659C26.642 22.4322 26.8738 21.0563 26.4275 19.9116C26.2787 19.532 26.0562 19.1776 25.7439 18.8667C24.9249 18.0537 24.1589 17.2942 23.2488 16.7329ZM11.3318 7.99951C9.494 7.99974 8.00011 9.49526 7.99976 11.3325C7.99976 13.1701 9.49378 14.6663 11.3318 14.6665C13.1685 14.6664 14.6638 13.1701 14.6638 11.3325C14.6635 9.49521 13.1683 7.99966 11.3318 7.99951Z" fill="white"/>
</svg>
